# xmcd CD database file
#
# Track frame offsets:
#	182
#	40505
#	68107
#	84205
#	101700
#	139407
#	157690
#	184745
#	204032
#	225067
#	261500
#
# Disc length: 3655 seconds
#
# Revision: 6
# Processed by: cddbd v1.5.2PL0 Copyright (c) Steve Scherf et al.
# Submitted via: CDex 1.51
#
DISCID=7e0e450b
DTITLE=John Coltrane - Stellar Regions
DYEAR=1967
DGENRE=Jazz
TTITLE0=Seraphic Light
TTITLE1=Sun Star
TTITLE2=Stellar Regions
TTITLE3=Iris
TTITLE4=Offering
TTITLE5=Configuration
TTITLE6=Jimmy's Mode
TTITLE7=Tranesonic
TTITLE8=Stellar Regions (Alternate Take)
TTITLE9=Sun Star (Alternate Take)
TTITLE10=Tranesonic (Alternate Take)
EXTD=YEAR: 1967
EXTT0=
EXTT1=
EXTT2=
EXTT3=
EXTT4=
EXTT5=
EXTT6=
EXTT7=
EXTT8=
EXTT9=
EXTT10=
PLAYORDER=
